<svg width="26" height="26" viewBox="0 0 26 26" fill="none" xmlns="http://www.w3.org/2000/svg">
<g clip-path="url(#clip0_6_227)">
<path d="M8.42116 25.4151C10.7454 25.4151 12.6318 23.5288 12.6318 21.2046V16.994H8.42116C6.09693 16.994 4.21057 18.8804 4.21057 21.2046C4.21057 23.5288 6.09693 25.4151 8.42116 25.4151Z" fill="#0ACF83"/>
<path d="M4.21057 12.7836C4.21057 10.4593 6.09693 8.573 8.42116 8.573H12.6318V16.994H8.42116C6.09693 16.9941 4.21057 15.1078 4.21057 12.7836Z" fill="#A259FF"/>
<path d="M4.21057 4.36254C4.21057 2.03833 6.09693 0.151978 8.42116 0.151978H12.6318V8.573H8.42116C6.09693 8.573 4.21057 6.68675 4.21057 4.36254Z" fill="#F24E1E"/>
<path d="M12.6315 0.151978H16.8421C19.1663 0.151978 21.0527 2.03833 21.0527 4.36254C21.0527 6.68675 19.1663 8.573 16.8421 8.573H12.6315V0.151978Z" fill="#FF7262"/>
<path d="M21.0527 12.7836C21.0527 15.1078 19.1663 16.9941 16.8421 16.9941C14.5178 16.9941 12.6315 15.1078 12.6315 12.7836C12.6315 10.4593 14.5178 8.573 16.8421 8.573C19.1663 8.573 21.0527 10.4593 21.0527 12.7836Z" fill="#1ABCFE"/>
</g>
<defs>
<clipPath id="clip0_6_227">
<rect width="25.2632" height="25.2632" fill="white" transform="translate(0 0.151978)"/>
</clipPath>
</defs>
</svg>
