<svg width="26" height="26" viewBox="0 0 26 26" fill="none" xmlns="http://www.w3.org/2000/svg">
<g clip-path="url(#clip0_6_228)">
<path d="M23.9246 0.151978H2.39128C1.89667 0.151978 1.42233 0.348459 1.07259 0.698198C0.722849 1.04794 0.526367 1.52228 0.526367 2.01689V23.5502C0.526367 24.0448 0.722849 24.5192 1.07259 24.8689C1.42233 25.2187 1.89667 25.4151 2.39128 25.4151H23.9246C24.4192 25.4151 24.8936 25.2187 25.2433 24.8689C25.593 24.5192 25.7895 24.0448 25.7895 23.5502V2.01689C25.7895 1.52228 25.593 1.04794 25.2433 0.698198C24.8936 0.348459 24.4192 0.151978 23.9246 0.151978ZM8.05619 21.673H4.25795V9.60812H8.05619V21.673ZM6.15444 7.93619C5.72359 7.93376 5.30312 7.80376 4.94609 7.5626C4.58905 7.32143 4.31146 6.9799 4.14834 6.58112C3.98522 6.18234 3.94389 5.74418 4.02956 5.32193C4.11522 4.89968 4.32405 4.51227 4.62969 4.20859C4.93532 3.90491 5.32407 3.69857 5.74686 3.61562C6.16965 3.53267 6.60754 3.57681 7.00526 3.74249C7.40299 3.90816 7.74272 4.18794 7.98159 4.54652C8.22046 4.90509 8.34776 5.32639 8.34742 5.75724C8.35148 6.0457 8.29743 6.33202 8.18849 6.59914C8.07954 6.86626 7.91793 7.10871 7.71328 7.31205C7.50864 7.51538 7.26516 7.67543 6.99734 7.78266C6.72953 7.88989 6.44286 7.9421 6.15444 7.93619ZM22.0562 21.6836H18.2597V15.0923C18.2597 13.1485 17.4334 12.5485 16.3667 12.5485C15.2404 12.5485 14.1351 13.3976 14.1351 15.1415V21.6836H10.3369V9.61689H13.9895V11.2888H14.0386C14.4053 10.5467 15.6895 9.27829 17.6492 9.27829C19.7685 9.27829 22.0579 10.5362 22.0579 14.2204L22.0562 21.6836Z" fill="#0A66C2"/>
</g>
<defs>
<clipPath id="clip0_6_228">
<rect width="25.2632" height="25.2632" fill="white" transform="translate(0.526367 0.151978)"/>
</clipPath>
</defs>
</svg>
