<svg width="119" height="53" viewBox="0 0 119 53" fill="none" xmlns="http://www.w3.org/2000/svg">
<rect y="26" width="100" height="27" rx="4" fill="#FF00A2"/>
<path d="M18.864 43V34.408H21.84C22.224 34.408 22.584 34.472 22.92 34.6C23.264 34.728 23.564 34.908 23.82 35.14C24.076 35.372 24.276 35.652 24.42 35.98C24.572 36.3 24.648 36.656 24.648 37.048C24.648 37.432 24.572 37.788 24.42 38.116C24.276 38.436 24.076 38.712 23.82 38.944C23.564 39.176 23.264 39.356 22.92 39.484C22.584 39.612 22.224 39.676 21.84 39.676H20.22V43H18.864ZM21.876 38.38C22.1 38.38 22.3 38.344 22.476 38.272C22.652 38.192 22.8 38.088 22.92 37.96C23.04 37.832 23.132 37.688 23.196 37.528C23.26 37.368 23.292 37.208 23.292 37.048C23.292 36.88 23.26 36.716 23.196 36.556C23.132 36.396 23.04 36.256 22.92 36.136C22.8 36.008 22.652 35.904 22.476 35.824C22.3 35.744 22.1 35.704 21.876 35.704H20.22V38.38H21.876ZM25.6095 37.12H26.8695V38.008H26.9415C27.0135 37.856 27.1095 37.716 27.2295 37.588C27.3575 37.452 27.4975 37.34 27.6495 37.252C27.8095 37.156 27.9735 37.084 28.1415 37.036C28.3175 36.98 28.4855 36.952 28.6455 36.952C28.8375 36.952 29.0015 36.968 29.1375 37C29.2735 37.032 29.3975 37.076 29.5095 37.132L29.1255 38.368C29.0375 38.328 28.9375 38.3 28.8255 38.284C28.7215 38.26 28.5935 38.248 28.4415 38.248C28.2255 38.248 28.0255 38.292 27.8415 38.38C27.6655 38.468 27.5095 38.588 27.3735 38.74C27.2375 38.892 27.1295 39.072 27.0495 39.28C26.9775 39.488 26.9415 39.708 26.9415 39.94V43H25.6095V37.12ZM32.5994 36.928C33.0474 36.928 33.4594 37.008 33.8354 37.168C34.2114 37.32 34.5354 37.536 34.8074 37.816C35.0794 38.096 35.2914 38.428 35.4434 38.812C35.5954 39.196 35.6714 39.612 35.6714 40.06C35.6714 40.508 35.5954 40.924 35.4434 41.308C35.2914 41.692 35.0794 42.024 34.8074 42.304C34.5354 42.584 34.2114 42.804 33.8354 42.964C33.4594 43.116 33.0474 43.192 32.5994 43.192C32.1514 43.192 31.7394 43.116 31.3634 42.964C30.9874 42.804 30.6634 42.584 30.3914 42.304C30.1194 42.024 29.9074 41.692 29.7554 41.308C29.6034 40.924 29.5274 40.508 29.5274 40.06C29.5274 39.612 29.6034 39.196 29.7554 38.812C29.9074 38.428 30.1194 38.096 30.3914 37.816C30.6634 37.536 30.9874 37.32 31.3634 37.168C31.7394 37.008 32.1514 36.928 32.5994 36.928ZM32.5994 41.956C32.8234 41.956 33.0394 41.912 33.2474 41.824C33.4554 41.736 33.6394 41.612 33.7994 41.452C33.9674 41.292 34.0994 41.096 34.1954 40.864C34.2914 40.624 34.3394 40.356 34.3394 40.06C34.3394 39.764 34.2914 39.5 34.1954 39.268C34.0994 39.028 33.9674 38.828 33.7994 38.668C33.6394 38.508 33.4554 38.384 33.2474 38.296C33.0394 38.208 32.8234 38.164 32.5994 38.164C32.3754 38.164 32.1594 38.208 31.9514 38.296C31.7434 38.384 31.5554 38.508 31.3874 38.668C31.2274 38.828 31.0994 39.028 31.0034 39.268C30.9074 39.5 30.8594 39.764 30.8594 40.06C30.8594 40.356 30.9074 40.624 31.0034 40.864C31.0994 41.096 31.2274 41.292 31.3874 41.452C31.5554 41.612 31.7434 41.736 31.9514 41.824C32.1594 41.912 32.3754 41.956 32.5994 41.956ZM37.1559 38.296H36.1239V37.12H37.1559V35.32H38.4879V37.12H39.9399V38.296H38.4879V40.912C38.4879 41.056 38.5039 41.188 38.5359 41.308C38.5679 41.428 38.6159 41.528 38.6799 41.608C38.8159 41.76 38.9879 41.836 39.1959 41.836C39.3239 41.836 39.4239 41.828 39.4959 41.812C39.5679 41.788 39.6439 41.756 39.7239 41.716L40.1319 42.892C39.9639 42.956 39.7879 43.004 39.6039 43.036C39.4199 43.076 39.2119 43.096 38.9799 43.096C38.6999 43.096 38.4519 43.052 38.2359 42.964C38.0199 42.876 37.8319 42.756 37.6719 42.604C37.3279 42.26 37.1559 41.792 37.1559 41.2V38.296ZM43.7205 36.928C44.1685 36.928 44.5805 37.008 44.9565 37.168C45.3325 37.32 45.6565 37.536 45.9285 37.816C46.2005 38.096 46.4125 38.428 46.5645 38.812C46.7165 39.196 46.7925 39.612 46.7925 40.06C46.7925 40.508 46.7165 40.924 46.5645 41.308C46.4125 41.692 46.2005 42.024 45.9285 42.304C45.6565 42.584 45.3325 42.804 44.9565 42.964C44.5805 43.116 44.1685 43.192 43.7205 43.192C43.2725 43.192 42.8605 43.116 42.4845 42.964C42.1085 42.804 41.7845 42.584 41.5125 42.304C41.2405 42.024 41.0285 41.692 40.8765 41.308C40.7245 40.924 40.6485 40.508 40.6485 40.06C40.6485 39.612 40.7245 39.196 40.8765 38.812C41.0285 38.428 41.2405 38.096 41.5125 37.816C41.7845 37.536 42.1085 37.32 42.4845 37.168C42.8605 37.008 43.2725 36.928 43.7205 36.928ZM43.7205 41.956C43.9445 41.956 44.1605 41.912 44.3685 41.824C44.5765 41.736 44.7605 41.612 44.9205 41.452C45.0885 41.292 45.2205 41.096 45.3165 40.864C45.4125 40.624 45.4605 40.356 45.4605 40.06C45.4605 39.764 45.4125 39.5 45.3165 39.268C45.2205 39.028 45.0885 38.828 44.9205 38.668C44.7605 38.508 44.5765 38.384 44.3685 38.296C44.1605 38.208 43.9445 38.164 43.7205 38.164C43.4965 38.164 43.2805 38.208 43.0725 38.296C42.8645 38.384 42.6765 38.508 42.5085 38.668C42.3485 38.828 42.2205 39.028 42.1245 39.268C42.0285 39.5 41.9805 39.764 41.9805 40.06C41.9805 40.356 42.0285 40.624 42.1245 40.864C42.2205 41.096 42.3485 41.292 42.5085 41.452C42.6765 41.612 42.8645 41.736 43.0725 41.824C43.2805 41.912 43.4965 41.956 43.7205 41.956ZM48.277 38.296H47.245V37.12H48.277V35.32H49.609V37.12H51.061V38.296H49.609V40.912C49.609 41.056 49.625 41.188 49.657 41.308C49.689 41.428 49.737 41.528 49.801 41.608C49.937 41.76 50.109 41.836 50.317 41.836C50.445 41.836 50.545 41.828 50.617 41.812C50.689 41.788 50.765 41.756 50.845 41.716L51.253 42.892C51.085 42.956 50.909 43.004 50.725 43.036C50.541 43.076 50.333 43.096 50.101 43.096C49.821 43.096 49.573 43.052 49.357 42.964C49.141 42.876 48.953 42.756 48.793 42.604C48.449 42.26 48.277 41.792 48.277 41.2V38.296ZM54.0468 42.664L51.5988 37.12H53.0868L54.7068 41.02H54.7668L56.3388 37.12H57.8148L54.1308 45.592H52.7148L54.0468 42.664ZM58.4912 37.12H59.7512V37.876H59.8232C59.9832 37.62 60.2272 37.4 60.5552 37.216C60.8832 37.024 61.2752 36.928 61.7312 36.928C62.1072 36.928 62.4632 37.008 62.7992 37.168C63.1432 37.32 63.4432 37.536 63.6992 37.816C63.9552 38.096 64.1592 38.428 64.3112 38.812C64.4632 39.188 64.5392 39.604 64.5392 40.06C64.5392 40.516 64.4632 40.936 64.3112 41.32C64.1592 41.696 63.9552 42.024 63.6992 42.304C63.4432 42.584 63.1432 42.804 62.7992 42.964C62.4632 43.116 62.1072 43.192 61.7312 43.192C61.2752 43.192 60.8832 43.1 60.5552 42.916C60.2272 42.724 59.9832 42.5 59.8232 42.244H59.7512L59.8232 43.06V45.592H58.4912V37.12ZM61.4792 41.956C61.7032 41.956 61.9192 41.912 62.1272 41.824C62.3432 41.736 62.5272 41.612 62.6792 41.452C62.8392 41.284 62.9672 41.084 63.0632 40.852C63.1592 40.62 63.2072 40.356 63.2072 40.06C63.2072 39.764 63.1592 39.5 63.0632 39.268C62.9672 39.036 62.8392 38.84 62.6792 38.68C62.5272 38.512 62.3432 38.384 62.1272 38.296C61.9192 38.208 61.7032 38.164 61.4792 38.164C61.2472 38.164 61.0272 38.208 60.8192 38.296C60.6112 38.384 60.4272 38.508 60.2672 38.668C60.1152 38.828 59.9912 39.028 59.8952 39.268C59.7992 39.5 59.7512 39.764 59.7512 40.06C59.7512 40.356 59.7992 40.624 59.8952 40.864C59.9912 41.096 60.1152 41.292 60.2672 41.452C60.4272 41.612 60.6112 41.736 60.8192 41.824C61.0272 41.912 61.2472 41.956 61.4792 41.956ZM66.2564 36.076C66.0004 36.076 65.7844 35.988 65.6084 35.812C65.4404 35.636 65.3564 35.424 65.3564 35.176C65.3564 34.928 65.4404 34.716 65.6084 34.54C65.7844 34.364 66.0004 34.276 66.2564 34.276C66.5044 34.276 66.7124 34.364 66.8804 34.54C67.0564 34.716 67.1444 34.928 67.1444 35.176C67.1444 35.424 67.0564 35.636 66.8804 35.812C66.7124 35.988 66.5044 36.076 66.2564 36.076ZM65.5844 43V37.12H66.9164V43H65.5844ZM69.6195 37.912H69.6915C69.8675 37.632 70.1155 37.4 70.4355 37.216C70.7635 37.024 71.1315 36.928 71.5395 36.928C72.2835 36.928 72.8395 37.152 73.2075 37.6C73.5755 38.04 73.7595 38.628 73.7595 39.364V43H72.4275V39.544C72.4275 39.032 72.3075 38.676 72.0675 38.476C71.8355 38.268 71.5275 38.164 71.1435 38.164C70.9115 38.164 70.7075 38.212 70.5315 38.308C70.3555 38.404 70.2035 38.536 70.0755 38.704C69.9475 38.864 69.8515 39.052 69.7875 39.268C69.7235 39.476 69.6915 39.696 69.6915 39.928V43H68.3595V37.12H69.6195V37.912ZM77.6563 45.784C77.2483 45.784 76.8843 45.728 76.5643 45.616C76.2523 45.512 75.9803 45.376 75.7483 45.208C75.5163 45.04 75.3243 44.852 75.1723 44.644C75.0283 44.436 74.9203 44.236 74.8483 44.044L76.1203 43.528C76.2323 43.84 76.4243 44.092 76.6963 44.284C76.9683 44.484 77.2883 44.584 77.6563 44.584C78.2083 44.584 78.6363 44.416 78.9403 44.08C79.2523 43.744 79.4083 43.28 79.4083 42.688V42.208H79.3363C79.1523 42.472 78.8963 42.692 78.5683 42.868C78.2483 43.044 77.8723 43.132 77.4403 43.132C77.0803 43.132 76.7323 43.056 76.3963 42.904C76.0603 42.752 75.7603 42.54 75.4963 42.268C75.2403 41.996 75.0363 41.668 74.8843 41.284C74.7323 40.9 74.6563 40.48 74.6563 40.024C74.6563 39.568 74.7323 39.152 74.8843 38.776C75.0363 38.392 75.2403 38.064 75.4963 37.792C75.7603 37.52 76.0603 37.308 76.3963 37.156C76.7323 37.004 77.0803 36.928 77.4403 36.928C77.8723 36.928 78.2483 37.016 78.5683 37.192C78.8963 37.368 79.1523 37.588 79.3363 37.852H79.4083V37.12H80.6923V42.664C80.6923 43.168 80.6123 43.612 80.4523 43.996C80.3003 44.388 80.0883 44.716 79.8163 44.98C79.5523 45.244 79.2323 45.444 78.8563 45.58C78.4883 45.716 78.0883 45.784 77.6563 45.784ZM77.7043 41.896C77.9203 41.896 78.1323 41.856 78.3403 41.776C78.5483 41.696 78.7283 41.576 78.8803 41.416C79.0403 41.256 79.1683 41.06 79.2643 40.828C79.3603 40.596 79.4083 40.328 79.4083 40.024C79.4083 39.728 79.3603 39.464 79.2643 39.232C79.1683 38.992 79.0403 38.796 78.8803 38.644C78.7283 38.484 78.5483 38.364 78.3403 38.284C78.1323 38.196 77.9203 38.152 77.7043 38.152C77.4803 38.152 77.2643 38.196 77.0563 38.284C76.8563 38.364 76.6763 38.484 76.5163 38.644C76.3563 38.804 76.2283 39 76.1323 39.232C76.0363 39.464 75.9883 39.728 75.9883 40.024C75.9883 40.32 76.0363 40.584 76.1323 40.816C76.2283 41.048 76.3563 41.244 76.5163 41.404C76.6763 41.564 76.8563 41.688 77.0563 41.776C77.2643 41.856 77.4803 41.896 77.7043 41.896Z" fill="white"/>
<g filter="url(#filter0_d_6_244)">
<path d="M108.856 5.94022C109.93 5.21763 111.354 6.10297 111.18 7.3856L109.568 19.3168C109.392 20.6173 107.749 21.081 106.919 20.0643L103.996 16.4831C103.774 16.2105 103.463 16.0247 103.117 15.9584L99.5733 15.2778C98.2585 15.0254 97.908 13.3077 99.0187 12.5603L108.856 5.94022Z" fill="#FF00A2"/>
</g>
<defs>
<filter id="filter0_d_6_244" x="96.3552" y="4.68079" width="16.8396" height="18.9366" filterUnits="userSpaceOnUse" color-interpolation-filters="sRGB">
<feFlood flood-opacity="0" result="BackgroundImageFix"/>
<feColorMatrix in="SourceAlpha" type="matrix" values="0 0 0 0 0 0 0 0 0 0 0 0 0 0 0 0 0 0 127 0" result="hardAlpha"/>
<feOffset dy="1"/>
<feGaussianBlur stdDeviation="1"/>
<feColorMatrix type="matrix" values="0 0 0 0 0 0 0 0 0 0 0 0 0 0 0 0 0 0 0.28 0"/>
<feBlend mode="normal" in2="BackgroundImageFix" result="effect1_dropShadow_6_244"/>
<feBlend mode="normal" in="SourceGraphic" in2="effect1_dropShadow_6_244" result="shape"/>
</filter>
</defs>
</svg>
