<svg width="26" height="26" viewBox="0 0 26 26" fill="none" xmlns="http://www.w3.org/2000/svg">
<path d="M0.263184 25.4151L2.03897 18.9278C0.943182 17.0288 0.367394 14.8762 0.368447 12.6688C0.371604 5.76777 5.98738 0.151978 12.8874 0.151978C16.2358 0.15303 19.3789 1.45724 21.7431 3.82356C24.1063 6.18987 25.4073 9.33514 25.4063 12.6804C25.4031 19.5825 19.7874 25.1983 12.8874 25.1983C10.7926 25.1972 8.72843 24.672 6.90001 23.6741L0.263184 25.4151ZM7.20738 21.4078C8.97159 22.4551 10.6558 23.0825 12.8832 23.0836C18.6179 23.0836 23.2895 18.4162 23.2926 12.6783C23.2947 6.92882 18.6453 2.26777 12.8916 2.26566C7.15264 2.26566 2.48423 6.93303 2.48213 12.6699C2.48107 15.012 3.16739 16.7657 4.32002 18.6004L3.26844 22.4404L7.20738 21.4078ZM19.1937 15.6562C19.1158 15.5257 18.9074 15.4478 18.5937 15.2909C18.281 15.1341 16.7431 14.3772 16.4558 14.273C16.1695 14.1688 15.961 14.1162 15.7516 14.4299C15.5432 14.7425 14.9432 15.4478 14.761 15.6562C14.5789 15.8646 14.3958 15.8909 14.0832 15.7341C13.7705 15.5772 12.7621 15.2478 11.5674 14.1815C10.6379 13.352 10.0095 12.3278 9.82737 12.0141C9.64527 11.7015 9.80843 11.532 9.96422 11.3762C10.1053 11.2362 10.2768 11.0109 10.4337 10.8278C10.5926 10.6467 10.6442 10.5162 10.7495 10.3067C10.8537 10.0983 10.8021 9.91514 10.7232 9.75829C10.6442 9.6025 10.019 8.0625 9.75895 7.43619C9.50422 6.82671 9.24632 6.90882 9.05474 6.89935L8.45475 6.88882C8.24632 6.88882 7.90738 6.96671 7.62106 7.2804C7.33475 7.59408 6.52633 8.34987 6.52633 9.88987C6.52633 11.4299 7.64738 12.9172 7.80317 13.1257C7.96001 13.3341 10.0084 16.4941 13.1463 17.8488C13.8926 18.1709 14.4758 18.3636 14.9295 18.5078C15.6789 18.7457 16.361 18.712 16.9 18.632C17.501 18.5425 18.7505 17.8751 19.0116 17.1446C19.2726 16.413 19.2726 15.7867 19.1937 15.6562Z" fill="#25D366"/>
</svg>
